<svg width="71" height="72" viewBox="0 0 71 72" fill="none" xmlns="http://www.w3.org/2000/svg">
<g clip-path="url(#clip0_964_17605)">
<path d="M28.6949 42C36.4695 42 42.7921 35.721 42.7921 28C42.7921 20.279 36.4695 14 28.6949 14C20.9203 14 14.5977 20.279 14.5977 28C14.5977 35.721 20.9203 42 28.6949 42ZM28.6949 21C32.5822 21 35.7435 24.1395 35.7435 28C35.7435 31.8605 32.5822 35 28.6949 35C24.8076 35 21.6463 31.8605 21.6463 28C21.6463 24.1395 24.8076 21 28.6949 21Z" fill="white"/>
<path d="M26.6858 70.3403C27.272 70.7693 27.9743 71 28.6947 71C29.415 71 30.1173 70.7693 30.7035 70.3403C31.7564 69.577 56.5031 51.2624 56.4027 28.4002C56.4027 12.7411 43.9722 0 28.6947 0C13.4171 0 0.986633 12.7411 0.986633 28.3825C0.886191 51.2624 25.6329 69.577 26.6858 70.3403ZM28.6947 7.10006C40.1554 7.10006 49.4757 16.6532 49.4757 28.418C49.5484 44.173 34.2778 58.3199 28.6947 62.9598C23.115 58.3163 7.84091 44.1659 7.91364 28.4002C7.91364 16.6532 17.2339 7.10006 28.6947 7.10006Z" fill="white"/>
</g>
<defs>
<clipPath id="clip0_964_17605">
<rect width="70" height="72" fill="white" transform="translate(0.5)"/>
</clipPath>
</defs>
</svg>
